<?xml version="1.0" standalone="no"?>
<!DOCTYPE svg PUBLIC "-//W3C//DTD SVG 20010904//EN"
 "http://www.w3.org/TR/2001/REC-SVG-20010904/DTD/svg10.dtd">
<svg version="1.0" xmlns="http://www.w3.org/2000/svg"
 width="1600.000000pt" height="1600.000000pt" viewBox="0 0 1600.000000 1600.000000"
 preserveAspectRatio="xMidYMid meet">
<metadata>
Created by potrace 1.11, written by Peter Selinger 2001-2013
</metadata>
<g transform="translate(0.000000,1600.000000) scale(0.100000,-0.100000)"
fill="#000000" stroke="none">
<path d="M4490 15950 c-74 -4 -138 -8 -142 -9 -4 0 -9 -812 -10 -1803 l-3
-1803 -29 -62 c-71 -155 -263 -256 -426 -225 -133 24 -231 96 -287 210 l-28
57 -3 1803 -2 1802 -43 0 c-48 0 -326 -25 -452 -40 -133 -17 -412 -62 -423
-69 -16 -10 -85 -1495 -127 -2751 -23 -696 -38 -1527 -31 -1725 12 -355 74
-616 207 -875 89 -172 175 -287 339 -451 165 -166 292 -264 655 -507 339 -226
435 -314 502 -457 28 -59 28 -63 27 -240 -1 -233 -15 -362 -179 -1621 -277
-2123 -339 -2801 -338 -3679 2 -1856 253 -2864 774 -3109 109 -52 178 -67 331
-73 284 -12 461 49 629 216 394 392 589 1376 589 2968 0 874 -70 1612 -346
3633 -155 1136 -195 1483 -197 1695 -1 153 15 207 91 308 73 96 179 179 484
382 367 244 455 311 618 475 150 150 241 271 324 431 132 252 195 492 215 808
14 225 -12 1304 -64 2626 -64 1635 -78 1930 -92 1942 -32 26 -496 89 -810 109
l-103 7 0 -1780 c0 -1242 -3 -1797 -11 -1838 -28 -153 -145 -266 -304 -294
-171 -30 -362 66 -433 217 l-27 57 -3 1826 -2 1826 -38 7 c-59 10 -684 15
-832 6z"/>
<path d="M9776 15883 c-3 -4 -6 -999 -6 -2212 0 -2679 0 -2678 -100 -4086 -40
-570 -40 -559 -50 -910 -12 -407 -23 -502 -190 -1680 -176 -1239 -234 -1754
-282 -2490 -17 -259 -17 -1381 0 -1710 53 -1021 152 -1605 342 -2001 118 -245
282 -390 506 -446 79 -20 115 -22 309 -23 196 0 230 3 309 23 273 69 456 272
586 648 174 504 255 1239 275 2504 17 1018 -69 1620 -369 2560 -112 353 -163
531 -190 659 -102 480 -27 848 259 1277 103 153 205 283 440 559 336 394 486
588 627 813 238 381 374 761 430 1202 18 148 18 1523 0 1770 -79 1046 -266
1755 -620 2345 -141 235 -383 515 -577 667 -367 288 -800 457 -1310 512 -161
17 -380 28 -389 19z"/>
</g>
</svg>
